<?xml version="1.0" encoding="utf-8"?>
<!-- Generator: Adobe Illustrator 22.1.0, SVG Export Plug-In . SVG Version: 6.00 Build 0)  -->
<svg version="1.1" id="Layer_1" xmlns="http://www.w3.org/2000/svg" xmlns:xlink="http://www.w3.org/1999/xlink" x="0px" y="0px"
	 viewBox="0 0 119 49.6" style="enable-background:new 0 0 119 49.6;" xml:space="preserve">
<style type="text/css">
	.st0{fill:#FFFFFF;stroke:#000000;stroke-width:0.1;stroke-miterlimit:10;}
	.st1{fill:#FFFFFF;}
</style>
<g id="Layer_96">
	<g id="XMLID_2_">
		<path id="XMLID_56_" class="st0" d="M42.9,5.6L42.9,5.6l-0.4,6.3c-0.1,1.2-0.1,1.7,1.4,1.8v0.7H40v-0.7c1.4,0,1.4-0.4,1.5-1.9
			l0.4-6.4c0.1-1,0-1.4-1.2-1.4V3.3h3.7l3.4,7.4l3.3-7.4H55V4c-1.3,0.1-1.4,0.1-1.3,1.3l0.4,6.5c0.1,1.5,0.1,1.6,1.6,1.8v0.7h-5.6
			v-0.7h0.3c0.7,0,1.4,0,1.4-1.1c0-0.3,0-0.6,0-0.8l-0.4-6.3l0,0l-4,9H47L42.9,5.6z"/>
	</g>
</g>
<g id="Layer_92">
	<g id="XMLID_192_">
		<rect id="XMLID_199_" y="39.3" class="st0" width="119" height="0.5"/>
	</g>
	<path id="XMLID_231_" class="st0" d="M0.8,43.7v3.6c0,0.6,0.1,0.9,0.3,1c0.4,0.5,0.9,0.6,1.3,0.6C4,48.9,4,47.7,4,47.3v-3.5h0.8
		v3.5c0,0.3,0,1-0.5,1.5c-0.6,0.7-1.4,0.8-1.9,0.8s-1.5-0.2-2-0.9C0.2,48.4,0,48.1,0,47.2v-3.5H0.8z"/>
	<polygon id="XMLID_230_" class="st0" points="5.8,43.7 6.9,43.7 9.7,48.5 9.7,43.7 10.4,43.7 10.4,49.5 9.4,49.5 6.5,44.6 
		6.5,49.5 5.8,49.5 	"/>
	<rect id="XMLID_229_" x="11.8" y="43.7" class="st0" width="0.8" height="5.8"/>
	<polygon id="XMLID_228_" class="st0" points="16.4,49.5 15.5,49.5 13.5,43.7 14.3,43.7 16,48.6 17.7,43.7 18.5,43.7 	"/>
	<polygon id="XMLID_227_" class="st0" points="19.3,43.7 22.9,43.7 22.9,44.4 20,44.4 20,46.2 22.7,46.2 22.7,46.9 20,46.9 20,48.8 
		22.9,48.8 22.9,49.5 19.3,49.5 	"/>
	<path id="XMLID_224_" class="st0" d="M24.1,43.7h2.1c0.3,0,0.9,0,1.3,0.3s0.6,0.7,0.6,1.2c0,0.4-0.1,0.8-0.4,1
		c-0.2,0.2-0.5,0.3-0.7,0.4c0.5,0.1,0.8,0.4,0.9,1.1c0.1,0.7,0.1,1.2,0.4,1.8h-0.9c-0.1-0.4-0.2-1.1-0.3-1.5
		c-0.1-0.8-0.3-1.1-1.3-1.1h-1v2.6H24L24.1,43.7L24.1,43.7z M24.9,46.2h1.3c0.1,0,0.5,0,0.8-0.1c0.1-0.1,0.4-0.3,0.4-0.7
		c0-0.9-0.8-0.9-1.1-0.9H25L24.9,46.2L24.9,46.2z"/>
	<path id="XMLID_223_" class="st0" d="M29.9,47.8c0,0.4,0.1,1.1,1.4,1.1c1.2,0,1.3-0.7,1.3-1c0-0.6-0.5-0.8-1.3-1
		c-0.9-0.2-1.3-0.3-1.6-0.5c-0.5-0.3-0.6-0.8-0.6-1.1c0-1.2,1.1-1.7,2.2-1.7c0.4,0,1.2,0.1,1.6,0.6c0.3,0.3,0.3,0.7,0.3,1h-0.8
		c0-0.7-0.6-0.9-1.2-0.9c-0.8,0-1.3,0.4-1.3,0.9s0.3,0.7,1,0.9c1.4,0.3,1.5,0.4,1.9,0.6c0.5,0.4,0.6,0.9,0.6,1.1
		c0,1-0.8,1.8-2.3,1.8c-0.4,0-1.3-0.1-1.8-0.7C29,48.5,29,48,29,47.7L29.9,47.8L29.9,47.8z"/>
	<rect id="XMLID_222_" x="34.5" y="43.7" class="st0" width="0.8" height="5.8"/>
	<polygon id="XMLID_221_" class="st0" points="38.1,49.5 38.1,44.4 36.2,44.4 36.2,43.7 40.8,43.7 40.8,44.4 38.9,44.4 38.9,49.5 	
		"/>
	<polygon id="XMLID_220_" class="st0" points="43.5,47.2 41.2,43.7 42.2,43.7 43.9,46.6 45.6,43.7 46.5,43.7 44.3,47.3 44.3,49.5 
		43.5,49.5 	"/>
	<path id="XMLID_217_" class="st0" d="M49.8,44.4c0.6-0.6,1.4-0.8,1.9-0.8c1.6,0,2.6,1,2.6,3c0,1.5-0.6,3.1-2.7,3.1
		c-2,0-2.6-1.4-2.6-3C49,46,49.1,45,49.8,44.4 M50.4,48.4c0.3,0.4,0.8,0.5,1.3,0.5s0.9-0.1,1.3-0.5c0.5-0.6,0.5-1.5,0.5-1.9
		c0-1.3-0.4-2.3-1.7-2.3c-1.5,0-1.8,1.2-1.8,2.4C49.9,47.2,50,47.9,50.4,48.4"/>
	<polygon id="XMLID_216_" class="st0" points="55.3,43.7 58.7,43.7 58.7,44.4 56.1,44.4 56.1,46.2 58.6,46.2 58.6,46.9 56.1,46.9 
		56.1,49.5 55.3,49.5 	"/>
	<polygon id="XMLID_215_" class="st0" points="61.9,43.7 63,43.7 65.9,48.5 65.9,43.7 66.6,43.7 66.6,49.5 65.6,49.5 62.7,44.6 
		62.7,49.5 61.9,49.5 	"/>
	<polygon id="XMLID_214_" class="st0" points="67.7,43.7 71.3,43.7 71.3,44.4 68.5,44.4 68.5,46.2 71.2,46.2 71.2,46.9 68.5,46.9 
		68.5,48.8 71.4,48.8 71.4,49.5 67.7,49.5 	"/>
	<polygon id="XMLID_213_" class="st0" points="72.9,43.7 74.2,48.5 75.5,43.7 76.5,43.7 77.8,48.5 79.1,43.7 79.9,43.7 78.2,49.5 
		77.3,49.5 76,44.6 74.6,49.5 73.7,49.5 72.1,43.7 	"/>
	<polygon id="XMLID_212_" class="st0" points="82.4,48.7 85.8,44.4 82.5,44.4 82.5,43.7 86.7,43.7 86.7,44.5 83.4,48.8 86.8,48.8 
		86.8,49.5 82.4,49.5 	"/>
	<polygon id="XMLID_211_" class="st0" points="87.6,43.7 91.2,43.7 91.2,44.4 88.4,44.4 88.4,46.2 91.1,46.2 91.1,46.9 88.4,46.9 
		88.4,48.8 91.3,48.8 91.3,49.5 87.6,49.5 	"/>
	<path id="XMLID_208_" class="st0" d="M94.4,43.7h0.8l2.3,5.8h-0.9L96.1,48h-2.7l-0.6,1.5H92L94.4,43.7z M93.6,47.3h2.2l-1.1-2.8
		L93.6,47.3z"/>
	<polygon id="XMLID_207_" class="st0" points="98.3,43.7 99.1,43.7 99.1,48.8 101.7,48.8 101.7,49.5 98.3,49.5 	"/>
	<path id="XMLID_204_" class="st0" d="M104.6,43.7h0.8l2.3,5.8h-0.9l-0.6-1.5h-2.7l-0.6,1.5h-0.8L104.6,43.7z M103.9,47.3h2.2
		l-1.1-2.8L103.9,47.3z"/>
	<polygon id="XMLID_203_" class="st0" points="108.4,43.7 109.5,43.7 112.4,48.5 112.4,43.7 113.1,43.7 113.1,49.5 112.1,49.5 
		109.2,44.6 109.2,49.5 108.4,49.5 	"/>
	<path id="XMLID_200_" class="st0" d="M114.3,43.7h1.7c0.8,0,1.7,0,2.3,0.8c0.5,0.6,0.7,1.4,0.7,2.2c0,1.2-0.5,2-1,2.4
		c-0.6,0.5-1.3,0.5-2.1,0.5h-1.6V43.7z M115.1,48.8h0.8c0.5,0,1.1,0,1.5-0.3c0.7-0.5,0.8-1.5,0.8-1.8c0-0.2,0-1.2-0.6-1.8
		c-0.4-0.4-0.8-0.5-1.5-0.5h-1C115.1,44.4,115.1,48.8,115.1,48.8z"/>
</g>
<g id="Layer_89">
	<path id="XMLID_243_" class="st0" d="M16,0.9c0.1,0.1,0.2,0.1,0.2,0l0.6-0.7c0.1-0.1,0-0.2-0.1-0.2h-1.3c-0.1,0-0.1,0.1-0.1,0.1
		L16,0.9z M18.6,0.9c0.1,0,0.2-0.1,0.3-0.1l0.5-0.6c0.1-0.1,0.1-0.1,0-0.1h-1.1c-0.2-0.1-0.3,0-0.3,0l-0.5,0.6
		c-0.1,0.1-0.1,0.1,0,0.1L18.6,0.9L18.6,0.9z M23.8,0.9c0.1,0,0.2-0.1,0.3-0.1l0.5-0.6c0.1-0.1,0.1-0.1,0-0.1h-0.5
		c-0.1,0-0.2,0.1-0.3,0.1l-0.5,0.6c-0.1,0.1-0.1,0.1,0,0.1H23.8z M25,0.9c-0.2,0-0.1-0.1,0-0.3l0.4-0.4C25.5,0.1,25.7,0,25.9,0h0.5
		c0.2,0,0.2,0.1,0,0.3C25.8,0.9,25,0.9,25,0.9 M22.1,0.9c0.1,0,0.2-0.1,0.3-0.1l0.5-0.6C23,0.1,23,0,22.9,0h-0.5
		c-0.1,0-0.2,0.1-0.3,0.1l-0.5,0.6c-0.1,0.1-0.1,0.1,0,0.1L22.1,0.9L22.1,0.9z M20.4,0.9c0.1,0,0.2-0.1,0.3-0.1l0.5-0.6
		c0.1-0.1,0.1-0.1,0-0.1h-0.7c-0.1,0-0.2,0.1-0.3,0.1l-0.5,0.6c-0.1,0.1-0.1,0.1,0,0.1H20.4z M14,0.9c-0.1,0-0.2-0.1-0.3-0.1
		l-0.5-0.6c-0.1-0.1-0.1-0.1,0-0.1h1.1c0.1,0,0.2,0.1,0.3,0.1l0.5,0.6c0.1,0.1,0.1,0.1,0,0.1H14z M10.4,0.9c-0.1,0-0.2-0.1-0.3-0.1
		L9.6,0.2c0-0.1,0-0.2,0.1-0.2h0.5c0.1,0,0.2,0.1,0.3,0.1L11,0.8c0,0.1,0,0.1,0,0.1S10.4,0.9,10.4,0.9z M12.1,0.9
		c-0.1,0-0.2-0.1-0.3-0.1l-0.5-0.6c-0.1-0.1-0.1-0.1,0-0.1H12c0.1,0,0.2,0.1,0.3,0.1l0.5,0.6c0.1,0.1,0.1,0.1,0,0.1H12.1z M9.3,0.9
		c0.2,0,0.1-0.1,0-0.3L8.8,0.2C8.7,0.1,8.5,0,8.3,0H7.8c-0.2,0-0.2,0.1,0,0.3C8.5,0.9,9.3,0.9,9.3,0.9"/>
	<path id="XMLID_242_" class="st0" d="M21.3,6.8c0-0.1,0-0.2,0-0.3c-0.2-1.8-0.6-3.4-1.5-4.9c0-0.1-0.2-0.2-0.3-0.1
		c-0.1,0-0.1,0.1-0.1,0.2c0,0,0.3,0.4,0.4,0.6c0.2,0.3,0.3,0.7,0.3,1c0,0.1,0,0.3,0,0.4c-0.2,0.9-0.9,1.6-1.7,2
		c-0.2,0.1-0.5,0.1-0.7,0.2c-0.5,0.1-1.1,0-1.4-0.3c-0.1-0.1-0.2-0.2-0.3-0.3c-0.2-0.2-0.2-0.6-0.2-0.9c0-0.1,0-0.3,0.1-0.3l0,0
		c0.3-0.4,0.4,0.4,1.2,0.5c0.1,0,0.3,0,0.4,0s0.2-0.1,0.3-0.2C17.9,4.3,18,4.1,18,4c0-0.1,0-0.2,0-0.3c0-0.2-0.1-0.3-0.3-0.4
		c-0.4-0.3-1.1-0.6-1.3-1.1c0-0.1,0-0.3,0-0.4s0.1-0.2,0.2-0.4L17,1l0.6-0.7C17.6,0,17.4,0,17.3,0c-0.5,0.5-0.7,1.1-1.3,1.4
		c-0.7,0.2-1.3,0.4-1.8,1.1C13.4,3,12.6,3.6,11.8,4c-0.1,0.2-0.1,0.4,0,0.6c0.4,0.3,1,0.3,1.5,0.4c0.2,0.3,0.3,0.8,0.2,1.2
		c0.3,0.1,1.1-0.5,1.3-1.1c0.4,0,0.7,0.4,0.7,0.8c0,0.3,0,0.6-0.2,0.8C15,7.5,14.2,8,14.2,8c0.3,0.1,0.6,0.4,0.7,0.4
		c0.1,0,0.5-0.8,0.7-0.8s0.9,0.5,1.1,0.5c0.1,0,0.6-0.7,0.8-0.7c0.2,0,0.7,0.8,0.9,0.8c0.1,0,0.8-0.7,1.1-0.7c0.2,0,0.5,0.6,0.6,0.7
		c0.1,0,0.4-0.3,1.3-0.5C21.3,7.8,21.3,7.2,21.3,6.8"/>
</g>
<path id="XMLID_237_" class="st0" d="M23.8,19.1v-6.5H10.4v6.5c0,0-0.4,8,6.7,11.6C24.3,27.1,23.8,19.1,23.8,19.1"/>
<g id="Layer_87">
	<path id="XMLID_355_" class="st0" d="M16.9,1.2c-0.1,0-0.1,0.1-0.1,0.1c-0.1,0.1-0.2,0.2-0.2,0.3s0,0.2,0,0.3
		c0.2,0.4,0.9,0.7,1.2,1C18,3,18.1,3.2,18.1,3.4c0,0.1,0,0.2,0,0.4c0,0.2-0.1,0.3-0.3,0.5c-0.1,0.1-0.2,0.2-0.4,0.3
		c-0.2,0-0.3,0-0.5,0c-0.4-0.1-0.7-0.3-1-0.6c0,0,0,0.1-0.1,0.1l0,0l-0.1,0.2c0,0.3,0.1,0.6,0.2,0.8c0.1,0.1,0.2,0.2,0.3,0.3
		c0.3,0.3,0.8,0.3,1.3,0.3c0.2,0,0.4-0.1,0.7-0.2c0.8-0.4,1.4-1,1.6-1.9c0-0.1,0-0.3,0-0.4c0-0.4-0.1-0.7-0.3-1
		C19.4,2,19.2,1.8,19,1.6c-0.1-0.1-0.2-0.2-0.3-0.2c0.1-0.2,0.3-0.1,0.4-0.3C18.4,1,16.9,1,16.9,1C17,1.2,16.9,1.2,16.9,1.2
		 M16.7,5.3L16.7,5.3L16.7,5.3C16.7,5.2,16.7,5.2,16.7,5.3C16.8,5.3,16.7,5.3,16.7,5.3 M17.2,5.4l-0.1,0.1c0,0,0-0.1,0-0.2L17.2,5.4
		L17.2,5.4C17.3,5.4,17.3,5.4,17.2,5.4 M17.7,5.5c0-0.1,0-0.2-0.1-0.3l0.1-0.1h0.1c0.1,0.1,0.1,0.1,0.1,0.2
		C17.8,5.4,17.8,5.4,17.7,5.5 M18.4,5.3c0-0.1-0.1-0.3-0.2-0.4c0-0.1,0-0.1,0.1-0.2c0,0,0,0,0.1,0c0.1,0.1,0.1,0.1,0.1,0.2
		C18.5,5.1,18.4,5.2,18.4,5.3 M18.6,4.5c-0.1,0-0.1-0.1,0-0.2c0,0,0,0,0.1,0s0.2,0.1,0.3,0.2c-0.1,0.1,0,0.2,0,0.3
		C18.9,4.7,18.7,4.6,18.6,4.5 M18.9,4c-0.1,0-0.1-0.1-0.1-0.2c0-0.1,0-0.1,0-0.1c0.1-0.1,0.2,0,0.4,0c0.1,0.1,0.3,0.2,0.3,0.3
		C19.3,4,19,4,18.9,4 M19.7,3.4c-0.2-0.1-0.6-0.1-0.8,0.1c-0.1,0-0.2-0.1-0.2-0.3c0-0.1,0-0.1,0-0.1C18.8,3,19,3,19.2,3
		C19.4,3.1,19.6,3.2,19.7,3.4 M19.5,2.7c-0.3-0.1-0.7-0.1-0.9,0.1c-0.2,0-0.3-0.1-0.4-0.2c0,0,0-0.1,0-0.2c0.2-0.1,0.4-0.2,0.6-0.1
		C19.1,2.4,19.4,2.5,19.5,2.7 M17.2,1.8c0.2-0.2,0.6-0.2,0.9-0.2c0.4,0.1,0.8,0.1,1,0.4c-0.5-0.1-1-0.1-1.3,0.2
		c-0.2,0-0.4-0.1-0.6-0.2C17.1,1.9,17.1,1.8,17.2,1.8"/>
</g>
<g id="Layer_86">
	<polygon id="XMLID_354_" class="st1" points="21.8,22.1 18.9,21.9 20,24.6 17.8,22.7 17.1,25.5 16.4,22.7 14.2,24.6 15.3,21.9 
		12.4,22.1 14.9,20.5 12.4,19 15.3,19.2 14.2,16.5 16.4,18.4 17.1,15.6 17.8,18.4 20,16.5 18.9,19.2 21.8,19 19.3,20.5 	"/>
</g>
<g id="Layer_85">
	<path id="XMLID_353_" class="st1" d="M23.2,19.1c0,0,0.1,2-1,4.2C23,21,22.9,19,22.9,19v-5.6H11.4V19c0,0-0.1,2,0.7,4.3
		c-1.1-2.3-1-4.2-1-4.2v-5.9h12.1V19.1z"/>
</g>
<path id="XMLID_239_" class="st0" d="M6.6,13c-1.2,0-1.7,2.4-1.3,3.7c1.3-2.6,3.8-2.1,3.8-2.1S7.8,13,6.6,13"/>
<path id="XMLID_238_" class="st0" d="M3.7,16.3c0.4,0.5,1,0.7,1,0.7s-0.4-1.7,0.1-3.1s1.6-2,2.3-2.2s0.9-0.2,1.4-0.4
	c0.3-0.2,0.5-0.4,0.6-0.7c-0.4,0.1-0.8,0-1.2-0.1C7.4,10.3,6.9,10,6,9.4C5.2,8.8,4.8,8.8,4,8.7C3.3,8.7,3,9,3,9s0.5,0.2,0.8,0.6
	c0.4,0.6,0.1,1.2,0.1,1.2S3.5,10.6,3,10.6c-0.5-0.1-0.8,0-1.1-0.1c-0.3,0-0.4-0.3-0.4-0.3s-0.2,0.5,0.2,1.3c0.3,0.8,0.8,0.9,0.8,0.9
	S1.3,12.6,1,13.8c-0.4,1.6,0.9,2.6,0.9,2.6s0.1-0.8,0.5-1C2.8,15.3,3.3,15,3.3,15S3.2,15.7,3.7,16.3"/>
<path id="XMLID_236_" class="st0" d="M7.5,29.4c0.1-0.2,0.3-0.3,0.5-0.3c0.1,0,0.2,0,0.2,0.1c0.2,0.1,0.6,0.4,1,0.5s0.7,0,0.7-0.1
	S9.5,29,9,28.9S7.7,28.8,6.7,29s-1.4,0-1.5-0.2s0-0.2,0.1-0.3c-0.1,0-0.3,0.1-0.3,0.2c-0.2,0.4-0.3,0.8-0.3,1.6c0,0.8,0,1.5,0.5,1.6
	C5.7,32,6,31.7,6.4,31.6c0.3-0.1,0.5,0.1,0.5,0.1L7.5,29.4z"/>
<path id="XMLID_235_" class="st0" d="M26.7,29.4c-0.1-0.2-0.3-0.3-0.5-0.3c-0.1,0-0.2,0-0.2,0.1c-0.2,0.1-0.6,0.4-1,0.5
	s-0.7,0-0.7-0.1s0.4-0.6,0.9-0.7s1.3-0.1,2.3,0.1s1.4,0,1.5-0.2s0-0.2-0.1-0.3c0.2,0,0.3,0.1,0.3,0.2c0.2,0.4,0.3,0.8,0.3,1.6
	c0,0.8,0,1.5-0.5,1.6c-0.5,0.1-0.8-0.2-1.2-0.3c-0.3-0.1-0.5,0.1-0.5,0.1L26.7,29.4z"/>
<path id="XMLID_234_" class="st0" d="M27.3,32.6c-2.4,1.7-6.1,2.7-10.2,2.7s-7.8-1.1-10.2-2.7c-0.1,0-0.1-0.1-0.1-0.2c0,0,0,0,0-0.1
	l0.9-2.9c0-0.1,0.1-0.1,0.2-0.1s0.1,0,0.1,0.1C9.6,31,13,32,17.1,32s7.6-1.1,9-2.6l0.1-0.1c0.1,0,0.1,0.1,0.2,0.1l0.9,2.9
	c0,0,0,0,0,0.1C27.4,32.5,27.4,32.6,27.3,32.6"/>
<g id="Layer_84">
	<path id="XMLID_352_" class="st0" d="M29.5,17.3L29.5,17.3c-0.1,0-0.1,0-0.2-0.1c-1-0.4-1.3-0.8-2.2-1.2c-0.9-0.4-1.8,0-1.8,0
		s0.6,0.3,0.8,0.7c0.1,0.2,0.2,0.4,0.3,0.7c0,0.1,0.1,0.3,0.2,0.4c0.2,0.4,0.8,0.7,0.8,0.7s-0.9,0.4-1.3,0.8s-0.8,0.9-0.8,1.7
		c0.1,0.8,0.7,1.3,0.7,1.3s0.2-0.8,1.1-1.2c1.1-0.5,1.9,0.1,1.9,0.1s0.2,0.3,0,1.2c-0.2,0.9-0.4,1.1-0.4,1.1s1.4-0.2,2.1-1.5
		c0.3-1,0.3-2,0.3-3.1s0.4-1.6,0.4-1.6S30.6,17.7,29.5,17.3"/>
</g>
<g id="Layer_83">
	<path id="XMLID_351_" class="st0" d="M24.8,26.3c-0.4-0.7,0-1.6,0-1.6s-1.3,0.4-2.3,2.2c-0.7,1.2-1,2.3-1.5,2.9s-0.9,0.8-0.9,0.8
		s0.3-0.1,0.5-0.2c0.4-0.1,1.1-0.1,2-0.8c1-0.7,0.9-1.7,0.9-1.7s0.6,0.7,1.6,0.2c0.7-0.4,0.7-1.1,0.7-1.1S25.4,27.3,24.8,26.3"/>
</g>
<g id="Layer_82">
	<path id="XMLID_350_" class="st0" d="M28.8,24.1c-1-0.4-1.5-0.2-1.5-0.2s0-0.4,0.3-1.1s0.7-1,0.7-1s-1.2-0.3-2.1,0.7
		c-0.9,1.1-1,1.9-0.8,2.6s0.5,0.9,0.7,1.3c0.2,0.3,0.2,0.9,0.2,0.9s0.4-1.4,1.4-1.8c1.2-0.5,2.1,0.3,2.1,0.3S29.9,24.5,28.8,24.1"/>
</g>
<g id="Layer_81">
	<path id="XMLID_349_" class="st0" d="M31.7,3.6c0,0,0.2,0.5-0.1,1.2S31,5.7,31,5.7s0.4,0,0.8,0.4C32.2,6.5,32.3,7,32.3,7
		s0.4-1,0.2-1.9C32.2,4.1,31.7,3.6,31.7,3.6"/>
</g>
<g id="Layer_80">
	<path id="XMLID_348_" class="st0" d="M26.9,9.6c0,0-0.7-0.4-0.8-1.1c-0.1-0.8,0-1.4-0.1-1.9c0-0.5-0.4-1.2-0.4-1.2s0,0.8-0.2,1.2
		c-0.3,0.5-0.7,1.4-0.2,2.2C25.8,9.9,26.9,9.6,26.9,9.6"/>
</g>
<g id="Layer_79">
	<path id="XMLID_347_" class="st0" d="M27.2,7.7c0.2,0.7-0.1,1.4-0.1,1.4s1.1,0,1.9-0.8c0.7-0.6,1.3-0.6,1.6-0.5
		c0.6,0.1,0.8,0.7,0.8,0.7s0.5-0.8,0-1.6c-0.3-0.5-1.3-0.6-1.3-0.6s0.2-0.2,0.2-0.5c0-0.4,0.1-0.8,0.3-1.5c0.3-0.9,1-1.3,1-1.3
		s-0.2-0.2-1.1,0c-0.5,0.1-1.1,0.7-1.6,1.3s-0.6,1.5-0.6,1.5s0-0.5-0.3-0.8c-0.4-0.3-0.7-0.5-1.1-0.8c-0.4-0.2-0.6-0.8-0.6-0.8
		S26,4,26,4.5S25.9,5.3,26.4,6C26.8,6.8,27,7,27.2,7.7"/>
</g>
<path id="XMLID_198_" class="st0" d="M13.3,29.8c-0.5-0.6-0.9-1.7-1.5-2.9c-1-1.8-2.3-2.2-2.3-2.2s0.4,0.9,0,1.7c-0.5,1-1,0.6-1,0.6
	s0,0.7,0.7,1.1c1,0.6,1.6-0.2,1.6-0.2s-0.1,1,0.9,1.7c0.9,0.7,1.6,0.7,2,0.8c0.3,0.1,0.5,0.2,0.5,0.2S13.8,30.4,13.3,29.8"/>
<path id="XMLID_197_" class="st0" d="M5.4,22.4c-0.2-0.9,0-1.2,0-1.2s0.8-0.6,1.9-0.1c0.9,0.4,1.1,1.2,1.1,1.2S9,21.7,9.1,21
	c0.1-0.8-0.3-1.3-0.7-1.7C7.9,18.9,7,18.5,7,18.5s0.7-0.4,0.8-0.7C7.9,17.6,8,17.5,8,17.3c0.1-0.2,0.1-0.4,0.3-0.7
	C8.5,16.3,9.1,16,9.1,16s-0.9-0.4-1.9,0C6.3,16.4,6,16.8,5,17.2c-0.1,0-0.1,0.1-0.2,0.1l0,0c-1.1,0.4-1.9,0-1.9,0s0.4,0.4,0.4,1.6
	C3.3,20,3.2,21,3.7,22c0.6,1.3,2.1,1.5,2.1,1.5S5.6,23.3,5.4,22.4"/>
<path id="XMLID_196_" class="st0" d="M8.2,22.5c-0.9-1.1-2.1-0.7-2.1-0.7s0.4,0.3,0.7,1C7,23.5,7,23.9,7,23.9s-0.5-0.2-1.5,0.2
	c-1,0.4-1,1.6-1,1.6s0.9-0.8,2.1-0.3c1,0.4,1.4,1.8,1.4,1.8s0.1-0.5,0.2-0.9c0.2-0.4,0.5-0.6,0.7-1.3C9.1,24.5,9.1,23.6,8.2,22.5"/>
<path id="XMLID_195_" class="st0" d="M3.6,4.3C3.8,5,3.9,5.4,3.9,5.8C3.9,6.1,4,6.3,4,6.3S3,6.4,2.7,6.9c-0.5,0.8,0,1.6,0,1.6
	s0.1-0.6,0.8-0.7c0.4-0.1,1,0,1.6,0.5c0.9,0.8,2,0.8,2,0.8s-0.2-0.6,0-1.4C7.3,7,7.5,6.8,8,6c0.5-0.7,0.4-1,0.4-1.5s-0.3-1-0.3-1
	S7.8,4.1,7.4,4.3C7,4.5,6.7,4.7,6.3,5C6,5.4,5.9,5.8,5.9,5.8s-0.1-1-0.5-1.5C4.9,3.7,4.3,3.1,3.8,3C2.9,2.8,2.6,2.9,2.6,2.9
	S3.2,3.3,3.6,4.3"/>
<path id="XMLID_194_" class="st0" d="M8.3,6.6c0,0.5,0,1.1-0.1,1.8C8,9.2,7.4,9.6,7.4,9.6s1.1,0.3,1.8-0.7C9.7,8.1,9.3,7.2,9,6.7
	C8.6,6.2,8.7,5.5,8.7,5.5S8.3,6.2,8.3,6.6"/>
<g id="Layer_78">
	<path id="XMLID_346_" class="st0" d="M34,8.9c-1-1.4-2,0.3-2,0.3s0.8-0.2,1.2,0.5c0.5,0.8-0.4,2-0.4,2S35.2,10.4,34,8.9"/>
</g>
<g id="Layer_77">
	<path id="XMLID_345_" class="st0" d="M31.7,12.5c0,0,0.5-0.1,0.8-0.9c0.3-0.8,0.2-1.3,0.2-1.3s-0.1,0.2-0.4,0.3
		c-0.3,0.1-0.6,0-1.1,0.1S30.3,11,30.3,11s-0.2-0.6,0.1-1.2C30.8,9.3,31.3,9,31.3,9s-0.3-0.3-1-0.3c-0.8,0.1-1.2,0.1-2,0.7
		c-0.9,0.6-1.3,0.8-1.8,1s-0.8,0.2-1.2,0.1c0.2,0.3,0.3,0.6,0.6,0.7c0.4,0.2,0.7,0.2,1.4,0.4c0.7,0.2,1.8,0.8,2.3,2.2
		s0.1,3.1,0.1,3.1s0.6-0.2,1.1-0.7C31.1,15.7,31,15,31,15s0.5,0.3,0.9,0.5s0.5,1,0.5,1s1.3-1,0.9-2.6C32.9,12.7,31.7,12.5,31.7,12.5
		"/>
</g>
<g id="Layer_76">
	<path id="XMLID_344_" class="st0" d="M29,16.6c0.3-1.3-0.2-3.7-1.3-3.7c-1.1,0-2.5,1.5-2.5,1.5S27.7,14,29,16.6"/>
</g>
<g id="Layer_75">
	<path id="XMLID_343_" class="st0" d="M22.8,8.6c-0.1-0.2-1.5,0.6-1.5,0.6s0-0.7-0.2-0.9c-0.6,0-1,0.3-1.3,0.7l0,0
		c-0.1-0.4-0.4-0.8-0.5-0.8c-0.2,0-1,0.7-1,0.7S17.7,8.1,17.5,8c-0.1,0-0.5,0.5-0.8,0.8c-0.3-0.3-0.9-0.7-1.1-0.7
		c-0.1,0-0.4,0.6-0.6,1c-0.2-0.2-0.9-0.7-1.3-0.8c-0.2,0.3-0.2,1-0.2,1s-0.8-0.7-1.3-0.8c-0.1,0.2,0.1,1.2,0.7,1.7
		c0-0.1-0.3-0.6-0.2-1c0.3-0.1,0.9,0.3,0.9,0.3S13.7,9,14,8.9c0.4,0,1.1,0.5,1.1,0.5s0.3-0.6,0.6-0.8c0.4-0.1,1,0.4,1,0.4
		s0.4-0.5,0.8-0.5c0.3,0.1,0.7,0.6,0.7,0.6s0.6-0.4,1-0.5c0.2,0.1,0.5,0.6,0.5,0.6s0.8-0.5,1.2-0.5C21,9,21.1,9.4,21.1,9.4
		s0.8-0.3,1.2-0.3c-0.1,0.5-0.3,0.8-0.5,1.1C22.3,10,23.1,8.9,22.8,8.6"/>
</g>
<g id="Layer_74">
	<path id="XMLID_342_" class="st0" d="M17.3,10.5c0.3,0,0.5-1.3,0.1-1.3C17.2,9.1,17,10.4,17.3,10.5"/>
</g>
<g id="Layer_73">
	<path id="XMLID_341_" class="st0" d="M18.6,10.5c0.3,0.1,0.8-1.1,0.5-1.2C18.8,9.1,18.3,10.4,18.6,10.5"/>
</g>
<g id="Layer_72">
	<path id="XMLID_340_" class="st0" d="M15.7,9.4c0,0.5,0.3,1.2,0.5,1.1c0.2,0,0.1-1.1-0.3-1.3C15.8,9.2,15.7,9.3,15.7,9.4"/>
</g>
<g id="Layer_71">
	<path id="XMLID_339_" class="st0" d="M19.8,10.5c0.3,0.2,1.1-0.9,0.7-1.1C20.3,9.2,19.5,10.3,19.8,10.5"/>
</g>
<g id="Layer_70">
	<path id="XMLID_338_" class="st0" d="M14.1,9.5c0,0.5,0.4,1.2,0.6,1.1c0.1-0.1-0.1-1-0.5-1.2C14.2,9.3,14.1,9.4,14.1,9.5"/>
</g>
<g id="Layer_69">
	<path id="XMLID_337_" class="st0" d="M21,10.4c0.2,0.2,0.8-0.6,0.6-0.7C21.5,9.5,20.8,10.3,21,10.4"/>
</g>
<g id="Layer_68">
	<path id="XMLID_336_" class="st0" d="M13.6,10.6c0.2-0.1-0.2-0.8-0.4-0.7C13,9.9,13.4,10.7,13.6,10.6"/>
</g>
<g id="Layer_67">
	<path id="XMLID_335_" class="st0" d="M16.5,10.8c-0.1,0-0.1,0.1-0.1,0.1l0.3,0.8c0,0.1,0.1,0.1,0.2,0.1h1.3c0.1,0,0.1-0.1,0.1-0.1
		L18,10.9c0-0.1-0.1-0.1-0.2-0.1C17.8,10.8,16.5,10.8,16.5,10.8z"/>
</g>
<g id="Layer_66">
	<path id="XMLID_334_" class="st0" d="M18.6,11C18.6,11,18.5,11,18.6,11l0.2,0.7c0,0,0.1,0.1,0.2,0.1h1c0.1,0,0.1,0,0.1-0.1
		l-0.2-0.6c0-0.1-0.1-0.1-0.2-0.1C19.7,11,18.6,11,18.6,11z"/>
</g>
<g id="Layer_65">
	<path id="XMLID_333_" class="st0" d="M20.2,11C20.2,11,20.2,11.1,20.2,11l0.1,0.5l0.1,0.1h0.7c0,0,0.1,0,0.1-0.1L21,11.1L20.9,11
		H20.2z"/>
</g>
<g id="Layer_64">
	<path id="XMLID_332_" class="st0" d="M21.5,11.1C21.4,11.1,21.4,11.1,21.5,11.1l0.1,0.3c0,0,0,0,0.1,0h0.5l0,0L22,11.1
		c0,0,0,0-0.1,0H21.5z"/>
</g>
<g id="Layer_63">
	<path id="XMLID_331_" class="st0" d="M16.1,11.7C16.2,11.7,16.2,11.7,16.1,11.7L16,11.1c0-0.1-0.1-0.1-0.2-0.1h-1
		c-0.1,0-0.1,0-0.1,0.1l0.2,0.6c0,0.1,0.1,0.1,0.2,0.1h1C16.1,11.8,16.1,11.7,16.1,11.7z"/>
</g>
<g id="Layer_62">
	<path id="XMLID_330_" class="st0" d="M14.5,11.7C14.6,11.7,14.6,11.6,14.5,11.7l-0.1-0.5l-0.1-0.1h-0.7c0,0-0.1,0-0.1,0.1l0.2,0.4
		l0.1,0.1H14.5z"/>
</g>
<g id="Layer_61">
	<path id="XMLID_329_" class="st0" d="M13.3,11.6C13.3,11.6,13.4,11.6,13.3,11.6l-0.1-0.3c0,0,0,0-0.1,0h-0.5c0,0-0.1,0,0,0l0.1,0.3
		c0,0,0,0,0.1,0H13.3z"/>
</g>
<g id="Layer_60">
	<polygon id="XMLID_328_" class="st0" points="17.1,16.5 17.5,19.2 17.1,20.5 	"/>
</g>
<g id="Layer_59">
	<polygon id="XMLID_327_" class="st0" points="16.6,19.2 17.1,16.5 17.1,20.5 	"/>
</g>
<g id="Layer_58">
	<polygon id="XMLID_326_" class="st0" points="17.1,24.5 16.7,21.9 17.1,20.5 	"/>
</g>
<g id="Layer_57">
	<polygon id="XMLID_325_" class="st0" points="17.6,21.9 17.1,24.5 17.1,20.5 	"/>
</g>
<g id="Layer_56">
	<polygon id="XMLID_324_" class="st0" points="14.8,17.3 16.6,19.2 17.1,20.5 	"/>
</g>
<g id="Layer_55">
	<polygon id="XMLID_323_" class="st0" points="15.9,19.7 14.8,17.3 17.1,20.5 	"/>
</g>
<g id="Layer_54">
	<polygon id="XMLID_322_" class="st0" points="19.5,23.8 17.6,21.9 17.1,20.5 	"/>
</g>
<g id="Layer_53">
	<polygon id="XMLID_321_" class="st0" points="18.3,21.4 19.5,23.8 17.1,20.5 	"/>
</g>
<g id="Layer_52">
	<polygon id="XMLID_320_" class="st0" points="13.3,19.3 15.9,19.7 17.1,20.5 	"/>
</g>
<g id="Layer_51">
	<polygon id="XMLID_319_" class="st0" points="15.7,20.5 13.3,19.3 17.1,20.5 	"/>
</g>
<g id="Layer_50">
	<polygon id="XMLID_318_" class="st0" points="20.9,21.8 18.3,21.4 17.1,20.5 	"/>
</g>
<g id="Layer_49">
	<polygon id="XMLID_317_" class="st0" points="18.6,20.5 20.9,21.8 17.1,20.5 	"/>
</g>
<g id="Layer_48">
	<polygon id="XMLID_316_" class="st0" points="13.3,21.8 15.7,20.5 17.1,20.5 	"/>
</g>
<g id="Layer_47">
	<polygon id="XMLID_315_" class="st0" points="15.9,21.4 13.3,21.8 17.1,20.5 	"/>
</g>
<g id="Layer_46">
	<polygon id="XMLID_314_" class="st0" points="20.9,19.3 18.6,20.5 17.1,20.5 	"/>
</g>
<g id="Layer_45">
	<polygon id="XMLID_313_" class="st0" points="18.3,19.7 20.9,19.3 17.1,20.5 	"/>
</g>
<g id="Layer_44">
	<polygon id="XMLID_312_" class="st0" points="14.8,23.8 15.9,21.4 17.1,20.5 	"/>
</g>
<g id="Layer_43">
	<polygon id="XMLID_311_" class="st0" points="16.7,21.9 14.8,23.8 17.1,20.5 	"/>
</g>
<g id="Layer_42">
	<polygon id="XMLID_310_" class="st0" points="19.5,17.3 18.3,19.7 17.1,20.5 	"/>
</g>
<g id="Layer_41">
	<polygon id="XMLID_309_" class="st0" points="17.5,19.2 19.5,17.3 17.1,20.5 	"/>
</g>
<g id="Layer_39">
	<path id="XMLID_305_" class="st0" d="M61.3,10.2l-0.7,2.1c-0.3,0.9-0.3,1.3,1.4,1.3h0.2v0.7h-4.7v-0.7h0.3c0.8,0,1.3-0.4,1.7-1.6
		l3-8.4L62.3,3h2.6l3.5,9c0.5,1.2,0.8,1.5,1.8,1.6v0.7h-5.7v-0.7h0.6c1.1,0,1.2-0.5,0.9-1.3l-0.8-2.1C65.2,10.2,61.3,10.2,61.3,10.2
		z M63.1,5.1l-1.5,4.1h3.1L63.1,5.1z"/>
</g>
<g id="Layer_38">
	<path id="XMLID_304_" class="st0" d="M72.4,11h0.7c0.6,1.8,1.6,2.7,3,2.7c1.2,0,2-0.7,2-1.7c0-2.6-5.7-2.5-5.7-6
		c0.1-1.8,1.6-3,3.7-3c1.4,0,2.4,0.5,2.7,0.5c0.1,0,0.2,0,0.4-0.2h0.4l0.3,2.9h-0.7c-0.4-1.4-1.5-2.4-2.9-2.4c-1,0-1.7,0.5-1.7,1.2
		c0,1.6,2.9,1.9,4.9,3.9c0.7,0.7,1,1.5,1,2.3c0,1.8-1.7,3.3-3.8,3.3c-1.4,0-2.7-0.6-3-0.6c-0.2,0-0.3,0.1-0.4,0.3h-0.5L72.4,11z"/>
</g>
<g id="Layer_37">
	<path id="XMLID_303_" class="st0" d="M83.7,11h0.7c0.6,1.8,1.6,2.7,3,2.7c1.2,0,2-0.7,2-1.7c0-2.6-5.7-2.5-5.7-6
		c0-1.7,1.5-2.9,3.6-2.9c1.4,0,2.4,0.5,2.7,0.5c0.1,0,0.2,0,0.4-0.2h0.4l0.3,2.9h-0.7c-0.4-1.4-1.5-2.4-2.9-2.4
		c-1,0-1.7,0.5-1.7,1.2c0,1.6,2.9,1.9,4.9,3.9c0.7,0.7,1,1.5,1,2.3c0,1.8-1.7,3.3-3.8,3.3c-1.4,0-2.7-0.6-3-0.6
		c-0.2,0-0.3,0.1-0.4,0.3H84L83.7,11z"/>
</g>
<g id="Layer_36">
	<path id="XMLID_302_" class="st0" d="M101.9,4.3H98v4h2.9c1,0,1.3-0.3,1.3-1.3h0.7v3.5h-0.7c0-1-0.2-1.3-1.6-1.3H98v3.2
		c0,0.8,0.1,0.9,0.7,0.9h2.9c1.1,0,1.7-0.3,2-1.8h0.7l-0.2,2.8H93.5v-0.7h0.7c1,0,1.4-0.4,1.4-1.3v-7c0-1-0.3-1.3-1.5-1.3h-0.2V3.3
		h9.7l0.2,2.6h-0.7C103,4.7,102.7,4.3,101.9,4.3"/>
</g>
<g id="Layer_35">
	<path id="XMLID_301_" class="st0" d="M114,12.3c0,0.8,0.3,1.3,1.5,1.3h0.3v0.7h-6v-0.7h0.4c1.1,0,1.3-0.5,1.3-1.3V9.9l-3.8-5.1
		C107.2,4.1,107,4,106.1,4H106V3.3h5.8V4h-0.2c-1,0-1.2,0.4-0.8,0.9l2.8,3.7l2-3.2c0.5-0.7,0.6-1.4-0.6-1.4h-0.2V3.3h4.2V4
		c-1,0.1-1.3,0.3-2,1.2l-3,4.7L114,12.3L114,12.3z"/>
</g>
<g id="Layer_34">
	<path id="XMLID_300_" class="st0" d="M45.5,17.5h2.6v0.4H48c-0.8,0-0.9,0.4-0.9,0.8v2.5c0,2.3-1.6,2.7-2.8,2.7c-1.8,0-3-0.8-3-2.3
		v-3c0-0.5-0.1-0.7-0.7-0.7h-0.2v-0.4h3.2v0.4h-0.2c-0.4,0-0.7,0.2-0.7,0.7v3c0,1.2,0.9,1.7,1.8,1.7c1.3,0,2-0.8,2-1.9V19
		c0-0.7-0.2-1-0.8-1h-0.2C45.5,18,45.5,17.5,45.5,17.5z"/>
</g>
<g id="Layer_33">
	<path id="XMLID_299_" class="st0" d="M51.4,22.6c0,0.6,0.2,0.8,1,0.8v0.4H50v-0.4l0,0c0.6,0,0.8-0.2,0.8-0.6v-4.7
		c-0.2-0.2-0.5-0.2-0.8-0.2v-0.4h2l4.1,4.3v-3.1c0-0.7-0.2-0.9-1-0.9H55v-0.4h2.6v0.4h-0.1c-0.6,0-0.8,0.1-0.8,0.5v5.4h-0.6
		l-4.8-5.1L51.4,22.6L51.4,22.6z"/>
</g>
<g id="Layer_32">
	<path id="XMLID_298_" class="st0" d="M59.7,17.5h3.2v0.4h-0.2c-0.5,0-0.8,0.2-0.8,0.8v4c0,0.5,0.2,0.7,0.8,0.7h0.2v0.4h-3.2v-0.4
		h0.1c0.5,0,0.7-0.3,0.7-0.7v-4.1c0-0.5-0.2-0.8-0.7-0.8h-0.1V17.5z"/>
</g>
<g id="Layer_31">
	<path id="XMLID_297_" class="st0" d="M65.8,18.8c-0.3-0.7-0.5-0.9-1.1-0.9h-0.1v-0.4h3.5v0.4H68c-0.8,0-1,0.3-0.7,0.9l1.6,3.4
		l1.6-3.7c0.1-0.3-0.1-0.6-0.7-0.6h-0.2v-0.4h2.6v0.4h-0.1c-0.6,0-0.8,0.3-1.2,1.1l-2.1,5h-0.6L65.8,18.8z"/>
</g>
<g id="Layer_30">
	<path id="XMLID_296_" class="st0" d="M78.4,18.1h-2.2v2.3h1.6c0.6,0,0.8-0.2,0.8-0.7H79v2h-0.4c0-0.5-0.1-0.7-0.9-0.7h-1.5v1.8
		c0,0.4,0.1,0.5,0.4,0.5h1.7c0.7,0,1-0.2,1.2-1h0.4l-0.1,1.6h-6.1v-0.4H74c0.6,0,0.8-0.2,0.8-0.7v-4c0-0.5-0.2-0.7-0.9-0.7h-0.1
		v-0.4h5.6l0.1,1.5h-0.4C79,18.3,78.8,18.1,78.4,18.1"/>
</g>
<g id="Layer_29">
	<path id="XMLID_293_" class="st0" d="M84,22.7c0,0.5,0.2,0.7,0.8,0.7h0.3v0.4h-3.5v-0.4h0.2c0.6,0,0.9-0.2,0.9-0.7v-4
		c0-0.5-0.1-0.8-0.8-0.8h-0.2v-0.4c0.5,0,0.9,0,1.3-0.1c0.6,0,1.3-0.1,1.7-0.1c1.5,0,2.3,0.2,2.8,0.7c0.3,0.3,0.5,0.7,0.5,1.2
		c0,0.8-0.6,1.4-1.5,1.6c0.7,0.6,1,1.4,1.7,2.1c0.4,0.4,0.7,0.5,1.3,0.6V24c-0.2,0-0.3,0-0.6,0c-1.3,0-1.8-0.2-2.2-0.7
		c-0.5-0.5-1.1-1.6-1.7-2.1h-1L84,22.7L84,22.7z M84,20.7h0.4c1.2,0,1.9-0.4,1.9-1.5s-0.8-1.5-1.8-1.5H84V20.7z"/>
</g>
<g id="Layer_28">
	<path id="XMLID_292_" class="st0" d="M90.9,22h0.4c0.3,1,0.9,1.5,1.7,1.5c0.7,0,1.2-0.4,1.2-1C94.2,21,91,21,91,19
		c0-1,0.8-1.7,2.1-1.7c0.8,0,1.4,0.3,1.5,0.3s0.1,0,0.2-0.1H95l0.2,1.6h-0.4c-0.2-0.8-0.9-1.4-1.6-1.4c-0.6,0-1,0.3-1,0.7
		c0,0.9,1.7,1.1,2.8,2.2c0.4,0.4,0.6,0.9,0.6,1.3c0,1.1-1,1.9-2.2,1.9c-0.8,0-1.6-0.3-1.7-0.3s-0.2,0-0.2,0.2h-0.3L90.9,22z"/>
</g>
<g id="Layer_27">
	<path id="XMLID_291_" class="st0" d="M97.6,17.5h3.2v0.4h-0.2c-0.5,0-0.8,0.2-0.8,0.8v4c0,0.5,0.2,0.7,0.8,0.7h0.2v0.4h-3.2v-0.4
		h0.1c0.5,0,0.7-0.3,0.7-0.7v-4.1c0-0.5-0.2-0.8-0.7-0.8h-0.1V17.5z"/>
</g>
<g id="Layer_26">
	<path id="XMLID_290_" class="st0" d="M106.8,22.7c0,0.5,0.2,0.8,0.9,0.8h0.2v0.4h-3.6v-0.4h0.3c0.6,0,0.8-0.2,0.8-0.8v-4.6h-1.2
		c-0.8,0-0.9,0.1-1.1,1.2h-0.4l0.2-1.9h0.3c0.1,0.1,0.1,0.1,0.2,0.1s0.2,0,0.3,0h4.8c0.3,0,0.3,0,0.5-0.2h0.3l0.2,1.9h-0.4
		c-0.2-1.1-0.3-1.2-1.1-1.2h-1.2L106.8,22.7L106.8,22.7z"/>
</g>
<g id="Layer_25">
	<path id="XMLID_289_" class="st0" d="M115.5,22.7c0,0.5,0.2,0.8,0.9,0.8h0.2v0.4h-3.5v-0.4h0.3c0.6,0,0.8-0.3,0.8-0.7v-1.4
		l-2.2-2.9c-0.3-0.4-0.4-0.5-0.9-0.5H111v-0.4h3.3V18h-0.1c-0.6,0-0.7,0.2-0.5,0.5l1.6,2.1l1.2-1.8c0.3-0.4,0.3-0.8-0.4-0.8H116
		v-0.4h2.4V18c-0.6,0-0.8,0.2-1.1,0.7l-1.7,2.7v1.3H115.5z"/>
</g>
<g id="Layer_24">
	<path id="XMLID_288_" class="st0" d="M43.3,31.7c0,0.2,0.1,0.3,0.4,0.3h0.1v0.2h-1.6V32h0.2c0.2,0,0.3-0.1,0.3-0.3v-2.1h-0.5
		c-0.3,0-0.4,0.1-0.5,0.5h-0.2l0.1-0.9h0.1l0.1,0.1h0.1H44c0.1,0,0.1,0,0.2-0.1h0.1l0.1,0.9h-0.2c-0.1-0.5-0.1-0.5-0.5-0.5h-0.5v2.1
		H43.3z"/>
</g>
<g id="Layer_23">
	<path id="XMLID_287_" class="st0" d="M47.1,29.6h-1v1h0.7c0.2,0,0.3-0.1,0.3-0.3h0.2v0.9h-0.2c0-0.3-0.1-0.3-0.4-0.3h-0.6v0.8
		c0,0.2,0,0.2,0.2,0.2H47c0.3,0,0.4-0.1,0.5-0.5h0.2l-0.1,0.7H45v-0.2h0.2c0.3,0,0.3-0.1,0.3-0.3v-1.9c0-0.2-0.1-0.3-0.4-0.3l0,0
		v-0.2h2.4v0.7h-0.2C47.3,29.7,47.3,29.6,47.1,29.6"/>
</g>
<g id="Layer_22">
	<path id="XMLID_286_" class="st0" d="M51.2,31.7c0,0.3,0.1,0.3,0.3,0.3h0.1v0.2h-1.4V32h0.1c0.2,0,0.3-0.1,0.3-0.3v-1.8
		c0-0.2-0.1-0.4-0.3-0.4h-0.1v-0.2h1.4v0.2h-0.1c-0.3,0-0.3,0.1-0.3,0.4v0.8c0.2,0,0.4-0.1,0.6-0.4c0.1-0.2,0.4-0.5,0.4-0.7
		c0-0.1-0.1-0.2-0.3-0.2l0,0v-0.2h1.2v0.2c-0.3,0-0.4,0-0.5,0.2c-0.2,0.2-0.4,0.7-0.7,0.9c0.1,0.1,0.3,0.3,0.5,0.5l0.4,0.5
		c0.2,0.3,0.4,0.4,0.7,0.4v0.2H52v-0.2c0.2,0,0.3,0,0.3-0.1s-0.4-0.6-0.7-0.9c-0.1-0.2-0.2-0.2-0.3-0.2L51.2,31.7
		C51.3,31.7,51.2,31.7,51.2,31.7z"/>
</g>
<g id="Layer_21">
	<path id="XMLID_285_" class="st0" d="M55.9,29.4H57v0.2l0,0c-0.4,0-0.4,0.2-0.4,0.4v1.2c0,1-0.7,1.2-1.2,1.2
		c-0.8,0-1.3-0.4-1.3-1.1v-1.4c0-0.2-0.1-0.3-0.3-0.3h-0.1v-0.2h1.4v0.2H55c-0.2,0-0.3,0.1-0.3,0.3v1.4c0,0.6,0.4,0.8,0.8,0.8
		c0.6,0,0.9-0.3,0.9-0.9V30c0-0.3-0.1-0.5-0.4-0.5h-0.1V29.4z"/>
</g>
<g id="Layer_20">
	<path id="XMLID_284_" class="st0" d="M58.2,31.7c0,0.3,0.1,0.4,0.4,0.4v0.2h-1.1v-0.2l0,0c0.3,0,0.3-0.1,0.3-0.3v-2.1
		c-0.1-0.1-0.2-0.1-0.4-0.1v-0.2h0.9l1.8,2V30c0-0.3-0.1-0.4-0.4-0.4l0,0v-0.2H61v0.2l0,0c-0.3,0-0.4,0.1-0.4,0.2v2.5h-0.2L58.3,30
		L58.2,31.7L58.2,31.7z"/>
</g>
<g id="Layer_19">
	<path id="XMLID_283_" class="st0" d="M63.5,29.6h-1v1h0.7c0.2,0,0.3-0.1,0.3-0.3h0.2v0.9h-0.2c0-0.3-0.1-0.3-0.4-0.3h-0.6v0.8
		c0,0.2,0,0.2,0.2,0.2h0.7c0.3,0,0.4-0.1,0.5-0.5h0.2L64,32.1h-2.7v-0.2h0.2c0.3,0,0.3-0.1,0.3-0.3v-1.9c0-0.2-0.1-0.3-0.4-0.3l0,0
		v-0.2H64v0.7h-0.2C63.8,29.7,63.7,29.6,63.5,29.6"/>
</g>
<g id="Layer_18">
	<path id="XMLID_282_" class="st0" d="M65.4,31.7c0,0.3,0.1,0.4,0.4,0.4v0.2h-1.1v-0.2l0,0c0.3,0,0.3-0.1,0.3-0.3v-2.1
		c-0.1-0.1-0.2-0.1-0.4-0.1v-0.2h0.9l1.8,2V30c0-0.3-0.1-0.4-0.4-0.4l0,0v-0.2H68v0.2l0,0c-0.3,0-0.4,0.1-0.4,0.2v2.5h-0.2L65.3,30
		L65.4,31.7L65.4,31.7z"/>
</g>
<g id="Layer_17">
	<path id="XMLID_281_" class="st0" d="M72,31c-0.2,0-0.3,0.1-0.3,0.3V32c-0.3,0.2-0.8,0.3-1.2,0.3c-1.1,0-1.7-0.7-1.7-1.5
		c0-0.9,0.7-1.5,1.6-1.5c0.5,0,0.8,0.2,1,0.2c0.1,0,0.1,0,0.1-0.1h0.1v0.8h-0.2c-0.1-0.5-0.5-0.8-0.9-0.8c-0.6,0-1.1,0.5-1.1,1.3
		s0.5,1.3,1.1,1.3c0.2,0,0.4,0,0.5-0.1v-0.6c0-0.2-0.1-0.3-0.5-0.3v-0.2H72V31z"/>
</g>
<g id="Layer_16">
	<path id="XMLID_278_" class="st0" d="M73.4,31.2l-0.2,0.5c-0.1,0.2-0.1,0.3,0.3,0.3h0.1v0.2h-1.2V32h0.1c0.2,0,0.3-0.1,0.4-0.4
		l0.8-2.2v-0.1h0.7l0.9,2.4c0.1,0.3,0.2,0.4,0.4,0.4v0.2h-1.4v-0.2h0.2c0.3,0,0.3-0.1,0.2-0.4l-0.2-0.5
		C74.5,31.2,73.4,31.2,73.4,31.2z M73.9,29.8l-0.4,1.1h0.8L73.9,29.8z"/>
</g>
<g id="Layer_15">
	<path id="XMLID_277_" class="st0" d="M79.1,31.7c0,0.3,0.1,0.3,0.3,0.3h0.1v0.2H78V32h0.1c0.2,0,0.3-0.1,0.3-0.3v-1.8
		c0-0.2-0.1-0.4-0.3-0.4H78v-0.2h1.4v0.2h-0.1c-0.3,0-0.3,0.1-0.3,0.4v0.8c0.2,0,0.4-0.1,0.6-0.4c0.1-0.2,0.4-0.5,0.4-0.7
		c0-0.1-0.1-0.2-0.3-0.2h-0.1v-0.2h1.2v0.2c-0.3,0-0.4,0-0.5,0.2c-0.2,0.2-0.4,0.7-0.7,0.9c0.1,0.1,0.3,0.3,0.5,0.5l0.4,0.5
		c0.2,0.3,0.4,0.4,0.7,0.4v0.2h-1.5v-0.2c0.2,0,0.3,0,0.3-0.1s-0.4-0.6-0.7-0.9c-0.1-0.2-0.2-0.2-0.3-0.2L79.1,31.7L79.1,31.7z"/>
</g>
<g id="Layer_14">
	<path id="XMLID_276_" class="st0" d="M81.7,29.4h1.4v0.2H83c-0.2,0-0.3,0.1-0.3,0.3v1.8c0,0.2,0.1,0.3,0.3,0.3h0.1v0.2h-1.4V32h0.1
		c0.2,0,0.3-0.1,0.3-0.3v-1.9C82.1,29.6,82,29.5,81.7,29.4L81.7,29.4L81.7,29.4z"/>
</g>
<g id="Layer_13">
	<path id="XMLID_273_" class="st0" d="M86.5,31.7c0,0.3,0.1,0.3,0.4,0.3H87v0.2h-1.5V32h0.1c0.2,0,0.3-0.1,0.3-0.3v-2
		c0-0.2-0.1-0.3-0.3-0.3h-0.1v-0.2c0.2,0,0.4,0,0.7-0.1c0.3,0,0.6,0,0.7,0c0.9,0,1.2,0.4,1.2,0.9s-0.4,0.9-1.1,0.9
		c-0.2,0-0.3,0-0.5,0C86.5,30.9,86.5,31.7,86.5,31.7z M86.5,30.8c0.1,0,0.2,0,0.3,0c0.4,0,0.6-0.2,0.6-0.7c0-0.4-0.2-0.7-0.6-0.7
		c-0.1,0-0.2,0-0.3,0V30.8z"/>
</g>
<g id="Layer_12">
	<path id="XMLID_272_" class="st0" d="M90.9,29.4H92v0.2l0,0c-0.4,0-0.4,0.2-0.4,0.4v1.2c0,1-0.7,1.2-1.2,1.2
		c-0.8,0-1.3-0.4-1.3-1.1v-1.4c0-0.2-0.1-0.3-0.3-0.3h-0.1v-0.2H90v0.2l0,0c-0.2,0-0.3,0.1-0.3,0.3v1.4c0,0.6,0.4,0.8,0.8,0.8
		c0.6,0,0.9-0.3,0.9-0.9V30c0-0.3-0.1-0.5-0.4-0.5h-0.1V29.4z"/>
</g>
<g id="Layer_11">
	<path id="XMLID_269_" class="st0" d="M93.5,31.7c0,0.2,0.1,0.3,0.3,0.3H94v0.2h-1.5V32h0.1c0.3,0,0.4-0.1,0.4-0.3v-1.8
		c0-0.2-0.1-0.4-0.4-0.4h-0.1v-0.2c0.2,0,0.4,0,0.6,0s0.6,0,0.7,0c0.7,0,1,0.1,1.2,0.3c0.1,0.2,0.2,0.3,0.2,0.5
		c0,0.4-0.2,0.6-0.7,0.7c0.3,0.3,0.4,0.6,0.8,1c0.2,0.2,0.3,0.2,0.6,0.3v0.2c-0.1,0-0.1,0-0.3,0c-0.5,0-0.8-0.1-1-0.3
		s-0.5-0.7-0.8-1h-0.3L93.5,31.7L93.5,31.7z M93.5,30.8h0.2c0.5,0,0.8-0.2,0.8-0.7s-0.4-0.7-0.8-0.7h-0.2V30.8z"/>
</g>
<g id="Layer_10">
	<path id="XMLID_268_" class="st0" d="M98.3,29.6h-1v1H98c0.2,0,0.3-0.1,0.3-0.3h0.2v0.9h-0.2c0-0.3-0.1-0.3-0.4-0.3h-0.6v0.8
		c0,0.2,0,0.2,0.2,0.2h0.7c0.3,0,0.4-0.1,0.5-0.5h0.2l-0.1,0.7h-2.7v-0.2h0.2c0.3,0,0.3-0.1,0.3-0.3v-1.9c0-0.2-0.1-0.3-0.4-0.3l0,0
		v-0.2h2.4v0.7h-0.2C98.6,29.7,98.5,29.6,98.3,29.6"/>
</g>
<g id="Layer_9">
	<path id="XMLID_267_" class="st0" d="M101.7,32.1c0.2,0,0.3-0.1,0.3-0.4v-0.8h-1.5v0.8c0,0.2,0.1,0.3,0.3,0.3h0.1v0.2h-1.4V32h0.1
		c0.2,0,0.3-0.1,0.3-0.3v-1.8c0-0.2-0.1-0.3-0.3-0.3h-0.1v-0.2h1.4v0.2h-0.1c-0.2,0-0.3,0.1-0.3,0.3v0.7h1.5v-0.7
		c0-0.3-0.1-0.4-0.4-0.4l0,0v-0.2h1.4v0.2h-0.1c-0.2,0-0.3,0.1-0.3,0.3v1.8c0,0.2,0.1,0.3,0.3,0.3h0.1v0.2H101.7L101.7,32.1
		L101.7,32.1z"/>
</g>
<g id="Layer_8">
	<path id="XMLID_266_" class="st0" d="M105.7,29.4h1.1v0.2l0,0c-0.4,0-0.4,0.2-0.4,0.4v1.2c0,1-0.7,1.2-1.2,1.2
		c-0.8,0-1.3-0.4-1.3-1.1v-1.4c0-0.2-0.1-0.3-0.3-0.3h-0.1v-0.2h1.4v0.2h-0.1c-0.2,0-0.3,0.1-0.3,0.3v1.4c0,0.6,0.4,0.8,0.8,0.8
		c0.6,0,0.9-0.3,0.9-0.9V30c0-0.3-0.1-0.5-0.4-0.5h-0.1V29.4z"/>
</g>
<g id="Layer_7">
	<path id="XMLID_263_" class="st0" d="M108.4,31.7c0,0.2,0.1,0.3,0.4,0.3h0.1v0.2h-1.5V32h0.1c0.3,0,0.4-0.1,0.4-0.3v-1.8
		c0-0.2-0.1-0.4-0.4-0.4h-0.1v-0.2c0.2,0,0.4,0,0.6,0s0.6,0,0.7,0c0.6,0,1,0.1,1.2,0.3c0.1,0.2,0.2,0.3,0.2,0.5
		c0,0.4-0.2,0.6-0.7,0.7c0.3,0.3,0.4,0.6,0.8,1c0.2,0.2,0.3,0.2,0.6,0.3v0.2c-0.1,0-0.1,0-0.3,0c-0.5,0-0.8-0.1-1-0.3
		s-0.5-0.7-0.8-1h-0.4v0.7C108.3,31.7,108.4,31.7,108.4,31.7z M108.4,30.8h0.2c0.5,0,0.8-0.2,0.8-0.7s-0.4-0.7-0.8-0.7h-0.2V30.8z"
		/>
</g>
<g id="Layer_6">
	<path id="XMLID_260_" class="st0" d="M113,29.3c0.9,0,1.6,0.6,1.6,1.5c0,0.8-0.6,1.6-1.7,1.6c-1,0-1.6-0.7-1.6-1.5
		C111.3,29.9,112,29.3,113,29.3 M113,32.1c0.6,0,0.9-0.6,0.9-1.2c0-0.7-0.4-1.4-1-1.4S112,30,112,30.7
		C111.9,31.5,112.3,32.1,113,32.1"/>
</g>
<g id="Layer_5">
	<path id="XMLID_257_" class="st0" d="M116.1,31.2l-0.2,0.5c-0.1,0.2-0.1,0.3,0.3,0.3h0.1v0.2h-1.2V32h0.1c0.2,0,0.3-0.1,0.4-0.4
		l0.8-2.2l-0.1-0.1h0.7l0.9,2.4c0.1,0.3,0.2,0.4,0.4,0.4v0.2h-1.4v-0.2h0.2c0.3,0,0.3-0.1,0.2-0.4l-0.2-0.5
		C117.1,31.2,116.1,31.2,116.1,31.2z M116.6,29.8l-0.4,1.1h0.8L116.6,29.8z"/>
</g>
<g id="Layer_4">
	<rect id="XMLID_256_" x="89.4" y="28.5" class="st0" width="2.2" height="0.3"/>
</g>
</svg>
